<svg width="536" height="536" viewBox="0 0 536 536" fill="none" xmlns="http://www.w3.org/2000/svg">
<g clip-path="url(#clip0_153_3254)">
<path d="M79.3768 318.16C79.3768 318.16 73.7377 333.461 72.748 348.199H76.8064L80.6655 318.16H79.3768Z" fill="#04E061"/>
<path d="M84.1471 320.056L77.5398 319.237C76.5216 319.109 75.7598 318.247 75.7598 317.222C75.7598 316.496 76.1514 315.826 76.7779 315.463L101.036 301.586C102.972 300.476 105.222 300.027 107.437 300.312L142.154 304.769V310.323L84.1471 320.056Z" fill="#04E061"/>
<path d="M74.0156 346.264C74.0156 346.264 74.5069 334.744 80.2456 318.161L103.592 306.805L142.168 310.614V399.436H82.8231L74.0156 346.264Z" fill="#04AF49"/>
<path d="M38.3154 424.064C51.5908 424.064 62.3526 413.303 62.3526 400.027C62.3526 386.752 51.5908 375.99 38.3154 375.99C25.0401 375.99 14.2783 386.752 14.2783 400.027C14.2783 413.303 25.0401 424.064 38.3154 424.064Z" fill="black"/>
<path d="M74.0158 346.265C74.0158 346.265 50.5127 351.897 30.9185 364.4C29.4589 365.332 28.4194 366.799 28.042 368.494L36.529 398.355H96.6645V345.133C96.6645 343.595 95.269 342.427 93.7525 342.705L74.0158 346.265Z" fill="#04E061"/>
<path d="M39.469 367.098L31.9076 370.48C31.4021 370.708 30.804 370.637 30.3626 370.295L28.0343 368.486L22.8296 396.44C22.6445 397.429 23.4063 398.348 24.4102 398.348H36.5142L41.7901 368.921C42.0393 367.596 40.7008 366.55 39.469 367.098Z" fill="black"/>
<path d="M35.8309 398.88H24.4175C23.7767 398.88 23.1786 398.596 22.7657 398.104C22.3527 397.613 22.189 396.972 22.3029 396.338L25.1438 381.066C25.2007 380.774 25.4784 380.582 25.7632 380.639C26.0551 380.696 26.2474 380.974 26.1904 381.265L23.3495 396.531C23.2926 396.844 23.378 397.172 23.5774 397.414C23.7838 397.663 24.0829 397.805 24.4033 397.805H35.8166C36.1086 397.805 36.3506 398.047 36.3506 398.339C36.3506 398.631 36.1299 398.88 35.8309 398.88Z" fill="#663ABA"/>
<path d="M40.1168 378.324L36.5283 398.346H42.9221L46.119 380.539C46.3254 379.385 45.4426 378.331 44.2678 378.331H40.1168V378.324Z" fill="white"/>
<path d="M45.0302 364.827C44.838 364.827 44.66 364.727 44.5603 364.549C44.4179 364.293 44.5176 363.965 44.7739 363.823C45.0089 363.695 68.3126 351.078 93.1614 344.435C93.4462 344.357 93.7381 344.528 93.8165 344.812C93.8948 345.097 93.7239 345.389 93.4391 345.467C68.7185 352.075 45.5215 364.635 45.2865 364.756C45.2082 364.805 45.1157 364.827 45.0302 364.827Z" fill="#04AF49"/>
<path d="M123.471 378.511L82.7588 377.336V404.207H123.471V378.511Z" fill="black"/>
<path d="M143.983 424.065C160.923 424.065 174.655 410.332 174.655 393.392C174.655 376.451 160.923 362.719 143.983 362.719C127.042 362.719 113.31 376.451 113.31 393.392C113.31 410.332 127.042 424.065 143.983 424.065Z" fill="black"/>
<path d="M73.3171 424.066C87.5204 424.066 99.0345 412.552 99.0345 398.348C99.0345 384.145 87.5204 372.631 73.3171 372.631C59.1137 372.631 47.5996 384.145 47.5996 398.348C47.5996 412.552 59.1137 424.066 73.3171 424.066Z" fill="black"/>
<path d="M54.9125 416.843C54.7772 416.843 54.6348 416.786 54.528 416.68C49.9072 411.945 47.2656 405.708 47.0734 399.1C47.0663 398.808 47.2941 398.559 47.5932 398.552C47.8566 398.531 48.1343 398.773 48.1414 399.072C48.3194 405.402 50.8612 411.397 55.2899 415.932C55.4964 416.146 55.4892 416.48 55.2828 416.687C55.1831 416.794 55.0478 416.843 54.9125 416.843Z" fill="#663ABA"/>
<path d="M76.9766 410.807C83.8581 410.807 89.4366 405.228 89.4366 398.347C89.4366 391.465 83.8581 385.887 76.9766 385.887C70.0951 385.887 64.5166 391.465 64.5166 398.347C64.5166 405.228 70.0951 410.807 76.9766 410.807Z" fill="#663ABA"/>
<path d="M58.2297 380.605C58.0375 380.605 57.8524 380.498 57.7598 380.32L57.119 379.102C56.9837 378.839 57.0834 378.518 57.3397 378.383C57.6032 378.248 57.9236 378.348 58.0589 378.604L58.4932 379.416L68.4113 376.076C68.6961 375.984 68.9952 376.133 69.0877 376.411C69.1803 376.689 69.0308 376.995 68.7531 377.087L58.4077 380.569C58.3437 380.597 58.2796 380.605 58.2297 380.605Z" fill="#663ABA"/>
<path d="M52.9475 390.081C52.9119 390.081 52.8763 390.081 52.8407 390.074C52.6983 390.046 52.5702 389.96 52.4919 389.839L50.662 386.97C50.5054 386.721 50.5766 386.393 50.8258 386.23C51.075 386.073 51.4025 386.144 51.5663 386.393L53.0971 388.793L60.1601 383.866C60.4022 383.695 60.7368 383.759 60.9006 384.001C61.0715 384.243 61.0074 384.578 60.7653 384.741L53.2466 389.982C53.1611 390.046 53.0543 390.081 52.9475 390.081Z" fill="#663ABA"/>
<path d="M51.5595 399.202C51.4171 399.202 51.2747 399.145 51.1679 399.031L48.1989 395.799C47.9995 395.585 48.0138 395.243 48.2345 395.044C48.4552 394.844 48.7898 394.859 48.9892 395.079L51.5951 397.927L56.4438 393.563C56.6646 393.364 56.9992 393.385 57.1986 393.606C57.3979 393.826 57.3766 394.161 57.1558 394.36L51.9155 399.081C51.8158 399.152 51.6877 399.202 51.5595 399.202Z" fill="#663ABA"/>
<path d="M53.8369 407.923C53.7586 407.923 53.6731 407.902 53.5948 407.866L48.3474 405.232C48.0839 405.096 47.9771 404.776 48.1124 404.513C48.2477 404.249 48.5681 404.142 48.8315 404.278L53.7515 406.748L57.0124 403.815C57.2331 403.615 57.5678 403.637 57.7671 403.858C57.9665 404.078 57.9451 404.413 57.7244 404.612L54.1929 407.795C54.0932 407.873 53.9651 407.923 53.8369 407.923Z" fill="#663ABA"/>
<path d="M59.9389 416.124C59.9104 416.124 59.8748 416.124 59.8392 416.117L53.1892 414.893C52.8972 414.836 52.705 414.558 52.762 414.273C52.8118 413.981 53.0966 413.789 53.3814 413.846L59.6684 415.007L61.5196 412.023C61.6762 411.774 62.0037 411.696 62.2529 411.852C62.5021 412.009 62.5804 412.337 62.4238 412.586L60.3804 415.882C60.2949 416.032 60.124 416.124 59.9389 416.124Z" fill="#663ABA"/>
<path d="M64.8383 421.744C64.7386 421.744 64.6461 421.716 64.5535 421.666C64.3043 421.509 64.226 421.182 64.3826 420.933L66.1341 418.113C66.2908 417.864 66.6183 417.786 66.8675 417.942C67.1167 418.099 67.195 418.426 67.0384 418.676L65.2869 421.495C65.1943 421.659 65.0163 421.744 64.8383 421.744Z" fill="#663ABA"/>
<path d="M100.943 308.095C102.097 307.532 103.428 308.444 103.314 309.725C102.645 317.251 100.993 338.782 100.943 367.675C100.943 368.38 101.513 368.956 102.218 368.956H102.253C102.987 368.956 103.578 368.365 103.578 367.639C103.542 361.537 103.521 335.265 105.678 309.455C105.792 308.109 106.981 307.119 108.327 307.24L111.431 307.525L104.781 303.104L100.943 308.095Z" fill="#04E061"/>
<path d="M117.632 412.837H104.375C104.104 412.837 103.877 412.637 103.848 412.367L100.779 388.408C100.744 388.116 100.95 387.846 101.242 387.81C101.534 387.774 101.805 387.981 101.84 388.273L104.845 411.769H116.992L112.157 383.922C112.107 383.631 112.3 383.353 112.591 383.303C112.883 383.26 113.161 383.445 113.211 383.737L118.159 412.21C118.188 412.367 118.145 412.523 118.038 412.645C117.939 412.766 117.789 412.837 117.632 412.837Z" fill="black"/>
<path d="M103.264 404.129C103.001 404.129 102.773 403.93 102.737 403.659L99.9249 381.694C99.8893 381.402 100.096 381.131 100.388 381.096C100.68 381.06 100.95 381.267 100.986 381.559L103.798 403.524C103.834 403.816 103.627 404.086 103.335 404.122C103.307 404.129 103.286 404.129 103.264 404.129Z" fill="#663ABA"/>
<path d="M116.081 403.909C115.824 403.909 115.604 403.723 115.554 403.467L111.858 382.178C111.809 381.886 112.001 381.609 112.293 381.559C112.585 381.516 112.862 381.701 112.912 381.993L116.607 403.282C116.657 403.574 116.465 403.852 116.173 403.901C116.145 403.901 116.109 403.909 116.081 403.909Z" fill="#663ABA"/>
<path d="M115.682 401.642H102.944C102.652 401.642 102.41 401.4 102.41 401.108C102.41 400.816 102.652 400.574 102.944 400.574H115.682C115.974 400.574 116.216 400.816 116.216 401.108C116.216 401.4 115.974 401.642 115.682 401.642Z" fill="#663ABA"/>
<path d="M113.888 391.269C113.881 391.269 113.873 391.269 113.866 391.269L101.542 390.813C101.25 390.806 101.015 390.557 101.029 390.258C101.043 389.966 101.292 389.724 101.584 389.745L113.909 390.201C114.201 390.208 114.436 390.457 114.422 390.756C114.407 391.048 114.172 391.269 113.888 391.269Z" fill="#663ABA"/>
<path d="M89.4441 356.825C89.437 356.825 89.4298 356.825 89.4298 356.825L77.7601 356.476C77.4682 356.469 77.2333 356.22 77.2404 355.928C77.2475 355.636 77.5038 355.415 77.7886 355.408L89.4583 355.757C89.7502 355.764 89.9852 356.013 89.9781 356.305C89.971 356.597 89.7289 356.825 89.4441 356.825Z" fill="#04AF49"/>
<path d="M89.4939 361.958C89.4868 361.958 89.4868 361.958 89.4796 361.958L77.81 361.687C77.518 361.68 77.2831 361.438 77.2902 361.139C77.2973 360.847 77.5536 360.619 77.8384 360.619L89.5081 360.89C89.8 360.897 90.035 361.139 90.0279 361.438C90.0208 361.723 89.7858 361.958 89.4939 361.958Z" fill="#04AF49"/>
<path d="M89.4442 366.885C89.4442 366.885 89.437 366.885 89.4442 366.885L77.8172 366.814C77.5253 366.814 77.2832 366.572 77.2832 366.28C77.2832 365.988 77.5253 365.746 77.8172 365.746L89.437 365.817C89.729 365.817 89.971 366.059 89.971 366.351C89.971 366.65 89.7361 366.885 89.4442 366.885Z" fill="#04AF49"/>
<path d="M75.8809 342.655C75.8809 342.655 76.5288 336.61 77.6039 332.687C77.6039 332.687 85.3362 323.872 103.314 309.725L102.702 317.058C102.702 317.051 89.1169 328.208 75.8809 342.655Z" fill="#00752F"/>
<path d="M78.3659 344.385C78.2306 344.385 78.0953 344.335 77.9885 344.228C77.7821 344.022 77.7749 343.68 77.9814 343.474C92.7697 328.486 100.901 322.221 100.986 322.156C101.221 321.978 101.556 322.021 101.734 322.256C101.912 322.491 101.869 322.826 101.634 323.004C101.556 323.068 93.4745 329.298 78.7433 344.221C78.6436 344.328 78.5012 344.385 78.3659 344.385Z" fill="#00752F"/>
<path d="M105.465 350.871V339.842L130.634 352.437V361.999L105.465 350.871Z" fill="#00752F"/>
<path d="M148.348 408.259C156.559 408.259 163.215 401.603 163.215 393.392C163.215 385.181 156.559 378.525 148.348 378.525C140.137 378.525 133.481 385.181 133.481 393.392C133.481 401.603 140.137 408.259 148.348 408.259Z" fill="#663ABA"/>
<path d="M356.117 330.893H227.181V387.169H356.117V330.893Z" fill="black"/>
<path d="M196.871 257.073L276.8 230.679C278.117 230.245 279.556 230.359 280.787 231L299.178 240.583C300.766 241.409 302.034 242.748 302.774 244.378L308.833 257.728C309.218 258.575 309.979 259.188 310.891 259.373L319.94 261.253V353.065H294.486L196.871 257.073Z" fill="#00AAFF"/>
<path d="M240.673 249.383L278.658 238.504L293.169 251.562C294.009 252.317 294.486 253.392 294.486 254.517V353.065H278.217L274.507 342.356L240.673 249.383Z" fill="#0470FF"/>
<path d="M272.998 258.759C272.749 258.759 272.528 258.588 272.478 258.332C272.421 258.04 272.599 257.763 272.891 257.698L292.4 253.604C292.685 253.54 292.97 253.726 293.034 254.017C293.091 254.309 292.913 254.587 292.621 254.651L273.112 258.745C273.076 258.759 273.034 258.759 272.998 258.759Z" fill="#00409E"/>
<path d="M322.205 292.34C322.184 292.34 322.163 292.34 322.141 292.333L306.193 290.411C305.922 290.382 305.723 290.154 305.723 289.884V276.996C305.723 276.84 305.794 276.69 305.915 276.584C306.036 276.484 306.2 276.441 306.349 276.47L322.298 279.36C322.554 279.41 322.739 279.631 322.739 279.887V291.806C322.739 291.956 322.675 292.105 322.561 292.205C322.462 292.297 322.341 292.34 322.205 292.34ZM306.798 289.414L321.679 291.208V280.336L306.798 277.637V289.414Z" fill="#0470FF"/>
<path d="M322.205 317.927C322.191 317.927 322.177 317.927 322.163 317.927L306.214 316.689C305.936 316.667 305.723 316.432 305.723 316.155V303.267C305.723 303.111 305.787 302.968 305.908 302.862C306.022 302.762 306.178 302.712 306.328 302.733L322.277 304.941C322.54 304.976 322.739 305.204 322.739 305.467V317.386C322.739 317.536 322.675 317.678 322.569 317.778C322.469 317.878 322.341 317.927 322.205 317.927ZM306.798 315.656L321.679 316.817V305.937L306.798 303.88V315.656Z" fill="#0470FF"/>
<path d="M278.666 239.928C278.374 239.928 278.132 239.686 278.132 239.394V232.288C278.132 231.996 278.374 231.754 278.666 231.754C278.958 231.754 279.2 231.996 279.2 232.288V239.394C279.2 239.693 278.958 239.928 278.666 239.928Z" fill="#0470FF"/>
<path d="M240.68 375.627H183.115V402.455H240.68V375.627Z" fill="black"/>
<path d="M260.645 424.065C274.529 424.065 285.785 409.583 285.785 391.719C285.785 373.855 274.529 359.373 260.645 359.373C246.76 359.373 235.504 373.855 235.504 391.719C235.504 409.583 246.76 424.065 260.645 424.065Z" fill="black"/>
<path d="M242.859 424.064C256.563 424.064 267.672 409.774 267.672 392.145C267.672 374.517 256.563 360.227 242.859 360.227C229.155 360.227 218.046 374.517 218.046 392.145C218.046 409.774 229.155 424.064 242.859 424.064Z" fill="black"/>
<path d="M260.644 359.379C249.174 359.379 240.68 360.354 240.68 360.354L260.644 373.476V359.379Z" fill="black"/>
<path d="M260.645 418.133H242.859V424.071H260.645V418.133Z" fill="black"/>
<path d="M237.376 404.541C237.148 404.541 236.942 404.399 236.871 404.171C235.611 400.219 234.97 396.026 234.97 391.718C234.97 373.591 246.49 358.838 260.644 358.838C260.936 358.838 261.178 359.08 261.178 359.372C261.178 359.664 260.936 359.906 260.644 359.906C247.074 359.906 236.038 374.174 236.038 391.718C236.038 395.919 236.664 399.999 237.889 403.843C237.981 404.121 237.825 404.427 237.54 404.513C237.483 404.534 237.433 404.541 237.376 404.541Z" fill="#663ABA"/>
<path d="M283.607 379.065C283.386 379.065 283.18 378.93 283.101 378.709C279.135 367.289 270.314 359.912 260.645 359.912C249.936 359.912 241.734 360.774 240.823 360.874C240.68 360.909 240.524 360.895 240.396 360.802C240.21 360.681 240.118 360.446 240.168 360.233C240.217 360.012 240.395 359.848 240.623 359.827C240.709 359.82 249.281 358.852 260.652 358.852C270.791 358.852 279.997 366.513 284.119 378.368C284.219 378.645 284.07 378.951 283.792 379.044C283.721 379.051 283.664 379.065 283.607 379.065Z" fill="#663ABA"/>
<path d="M184.767 424.065C197.275 424.065 207.416 411.021 207.416 394.93C207.416 378.839 197.275 365.795 184.767 365.795C172.258 365.795 162.118 378.839 162.118 394.93C162.118 411.021 172.258 424.065 184.767 424.065Z" fill="black"/>
<path d="M168.754 424.064C181.097 424.064 191.104 411.192 191.104 395.313C191.104 379.435 181.097 366.562 168.754 366.562C156.411 366.562 146.404 379.435 146.404 395.313C146.404 411.192 156.411 424.064 168.754 424.064Z" fill="black"/>
<path d="M184.767 365.801C174.436 365.801 166.782 366.677 166.782 366.677L184.767 378.496V365.801Z" fill="black"/>
<path d="M184.774 418.717H168.754V424.064H184.774V418.717Z" fill="black"/>
<path d="M167.295 413.998C167.117 413.998 166.946 413.912 166.846 413.756C163.457 408.473 161.592 401.787 161.592 394.937C161.592 381.103 169.239 368.914 179.783 365.959C180.068 365.881 180.36 366.044 180.438 366.329C180.517 366.614 180.353 366.906 180.068 366.984C169.979 369.811 162.66 381.566 162.66 394.937C162.66 401.587 164.468 408.067 167.743 413.179C167.9 413.428 167.829 413.756 167.58 413.919C167.494 413.969 167.395 413.998 167.295 413.998Z" fill="#663ABA"/>
<path d="M263.18 410.836C270.722 410.836 276.836 402.277 276.836 391.719C276.836 381.161 270.722 372.602 263.18 372.602C255.638 372.602 249.523 381.161 249.523 391.719C249.523 402.277 255.638 410.836 263.18 410.836Z" fill="#663ABA"/>
<path d="M146.055 199.187L141.242 197.899L155.482 144.712C155.667 144.029 156.123 143.459 156.757 143.139L250.235 95.2852L252.506 99.7209L160.018 147.069L146.055 199.187Z" fill="#D3D3D3"/>
<path d="M153.517 152.052L157.447 156.644L160.01 147.075L155.482 144.711L153.517 152.052Z" fill="#B2B2B2"/>
<path d="M149.463 163.115L140.222 197.621L147.1 199.463L156.341 164.957L149.463 163.115Z" fill="#F59800"/>
<path d="M259.07 89.5356L195.872 121.891L199.117 128.228L262.314 95.8731L259.07 89.5356Z" fill="#F59800"/>
<path d="M296.288 96.323L291.889 98.666L334.323 178.336L338.722 175.993L296.288 96.323Z" fill="#D3D3D3"/>
<path d="M300.274 114.417L291.894 98.6816L296.294 96.332L300.274 103.815V114.417Z" fill="#B2B2B2"/>
<path d="M316.375 131.768L310.091 135.115L333.377 178.834L339.661 175.487L316.375 131.768Z" fill="#F59800"/>
<path d="M314.664 329.305V207.574C314.664 202.597 313.133 197.742 310.271 193.669L268 133.462L181.726 172.629L172.428 163.53L256.871 90.1228C260.972 86.5628 266.22 84.5977 271.652 84.5977H295.917C300.744 84.5977 303.849 89.7312 301.599 94.0103L288.747 118.432L339.677 175.413C349.132 185.994 353.689 200.063 352.236 214.182L340.381 329.312H314.664V329.305Z" fill="#FFBD1F"/>
<path d="M416.765 353.834H346.732V380.89H416.765V353.834Z" fill="black"/>
<path d="M346.732 381.374C346.44 381.374 346.198 381.132 346.198 380.84V353.784C346.198 353.492 346.44 353.25 346.732 353.25C347.024 353.25 347.266 353.492 347.266 353.784V380.84C347.266 381.132 347.031 381.374 346.732 381.374Z" fill="#663ABA"/>
<path d="M479.015 281.217L448.798 276.098V294.595H481.529V284.193C481.521 282.712 480.46 281.459 479.015 281.217Z" fill="black"/>
<path d="M322.148 355.791H288.477C285.843 355.791 283.714 353.655 283.714 351.027V333.213C283.714 330.728 285.622 328.663 288.1 328.464L322.155 325.744V355.791H322.148Z" fill="#F59800"/>
<path d="M499.734 303.437V350.535C499.734 353.44 497.377 355.79 494.48 355.79H322.147C319.342 355.79 317.085 353.483 317.142 350.685C318.217 299.456 335.048 251.169 340.801 236.081C341.962 233.041 344.44 230.699 347.544 229.716L384.832 217.861C388.342 216.743 392.087 216.573 395.69 217.356L441.614 227.359C446.519 228.427 450.015 232.771 450.015 237.79V289.652L492.557 295.263C496.665 295.79 499.734 299.293 499.734 303.437Z" fill="#FFBD1F"/>
<path d="M346.833 236.253L382.881 226.071C385.131 225.438 387.253 227.41 386.769 229.702C383.501 245.231 373.989 294.039 373.355 338.752C373.319 341.33 371.255 343.416 368.677 343.48L325.402 344.612C323.615 344.662 322.148 343.195 322.212 341.401C322.625 329.34 325.388 285.829 343.665 239.122C344.206 237.72 345.388 236.659 346.833 236.253Z" fill="#FF4053"/>
<path d="M491.562 304.828C491.541 304.828 491.526 304.828 491.505 304.828L473.022 302.927C472.73 302.898 472.516 302.635 472.545 302.343C472.573 302.051 472.829 301.837 473.128 301.866L491.612 303.767C491.904 303.795 492.117 304.059 492.089 304.351C492.06 304.621 491.833 304.828 491.562 304.828Z" fill="#F59800"/>
<path d="M491.511 310.786C491.497 310.786 491.483 310.786 491.469 310.786L473.028 309.263C472.736 309.241 472.515 308.978 472.537 308.686C472.558 308.394 472.821 308.173 473.113 308.195L491.554 309.718C491.846 309.74 492.067 310.003 492.045 310.295C492.024 310.573 491.789 310.786 491.511 310.786Z" fill="#F59800"/>
<path d="M491.469 316.715C491.454 316.715 491.447 316.715 491.433 316.715L473.035 315.562C472.743 315.54 472.515 315.291 472.537 314.999C472.558 314.707 472.807 314.458 473.099 314.501L491.497 315.654C491.789 315.676 492.017 315.925 491.995 316.217C491.981 316.494 491.746 316.715 491.469 316.715Z" fill="#F59800"/>
<path d="M491.419 322.621C491.412 322.621 491.405 322.621 491.398 322.621L473.05 321.838C472.758 321.824 472.53 321.574 472.537 321.282C472.552 320.991 472.829 320.741 473.093 320.77L491.441 321.553C491.733 321.567 491.961 321.816 491.953 322.108C491.946 322.393 491.704 322.621 491.419 322.621Z" fill="#F59800"/>
<path d="M253.652 424.064H359.412L512.058 389.339L444.945 366.071C438.402 363.807 431.488 362.803 424.575 363.117L320.43 367.887C313.346 368.214 306.39 369.916 299.953 372.899L247.714 397.143C242.118 399.742 238.857 405.673 239.661 411.789C240.58 418.816 246.568 424.064 253.652 424.064Z" fill="black"/>
<path d="M342.759 407.411C342.759 400.327 347.237 394.019 353.93 391.683L427.75 365.93C430.541 364.955 433.596 365.019 436.344 366.108L498.972 390.957L506.213 424.058H359.412C350.213 424.065 342.759 416.61 342.759 407.411Z" fill="#663ABA"/>
<path d="M249.523 423.985C249.473 423.985 249.416 423.978 249.366 423.964C243.891 422.291 239.875 417.541 239.128 411.867C238.288 405.487 241.648 399.378 247.487 396.666L299.726 372.422C306.255 369.389 313.211 367.687 320.403 367.36L353.518 365.843C353.81 365.822 354.059 366.057 354.073 366.349C354.087 366.641 353.859 366.89 353.568 366.904L320.452 368.421C313.404 368.741 306.583 370.414 300.175 373.383L247.935 397.627C242.524 400.14 239.413 405.801 240.189 411.717C240.879 416.979 244.61 421.386 249.68 422.931C249.964 423.017 250.121 423.316 250.036 423.601C249.964 423.836 249.751 423.985 249.523 423.985Z" fill="#663ABA"/>
<path d="M303.785 410.324C303.273 403.816 307.053 397.736 313.112 395.308L367.751 373.449L360.439 370.046C356.665 368.294 352.337 368.195 348.492 369.768L285.487 395.571C279.926 397.85 276.295 403.261 276.295 409.263C276.295 417.437 282.924 424.058 291.09 424.058H318.659C310.87 424.065 304.398 418.085 303.785 410.324Z" fill="#663ABA"/>
<path d="M506.149 424.066C516.043 424.066 524.063 416.046 524.063 406.152C524.063 396.259 516.043 388.238 506.149 388.238C496.256 388.238 488.235 396.259 488.235 406.152C488.235 416.046 496.256 424.066 506.149 424.066Z" fill="#663ABA"/>
<path d="M365.209 423.567C364.995 423.567 364.789 423.431 364.71 423.218C364.611 422.94 364.746 422.634 365.024 422.534C371.325 420.199 375.554 414.119 375.554 407.397C375.554 399.202 369.424 392.317 361.3 391.37C361.008 391.335 360.794 391.071 360.83 390.779C360.866 390.487 361.129 390.281 361.421 390.309C370.086 391.313 376.622 398.661 376.622 407.397C376.622 414.56 372.108 421.046 365.394 423.531C365.337 423.56 365.273 423.567 365.209 423.567Z" fill="black"/>
<path d="M484.007 410.949H380.147C379.855 410.949 379.613 410.707 379.613 410.415C379.613 410.123 379.855 409.881 380.147 409.881H484.007C484.299 409.881 484.541 410.123 484.541 410.415C484.541 410.707 484.299 410.949 484.007 410.949Z" fill="black"/>
<path d="M488.243 394.095H376.089C375.797 394.095 375.555 393.853 375.555 393.561C375.555 393.269 375.797 393.027 376.089 393.027H488.236C488.528 393.027 488.77 393.269 488.77 393.561C488.77 393.853 488.535 394.095 488.243 394.095Z" fill="black"/>
<path d="M499.755 423.425C499.691 423.425 499.627 423.411 499.563 423.389C492.472 420.676 487.701 413.749 487.701 406.152C487.701 399.63 491.04 393.72 496.63 390.345C496.886 390.196 497.213 390.274 497.363 390.523C497.513 390.772 497.434 391.107 497.185 391.257C491.916 394.432 488.769 400 488.769 406.145C488.769 413.3 493.262 419.829 499.94 422.385C500.218 422.492 500.353 422.798 500.247 423.076C500.175 423.297 499.969 423.425 499.755 423.425Z" fill="black"/>
<path d="M432.073 383.852C426.797 383.852 422.504 379.558 422.504 374.282C422.504 371.413 423.771 368.722 425.986 366.899C426.213 366.714 426.548 366.742 426.74 366.97C426.925 367.198 426.897 367.533 426.669 367.725C424.704 369.348 423.579 371.74 423.579 374.282C423.579 378.967 427.395 382.784 432.08 382.784C436.765 382.784 440.582 378.967 440.582 374.282C440.582 372.132 439.777 370.081 438.317 368.508C438.118 368.294 438.132 367.953 438.346 367.753C438.56 367.554 438.901 367.568 439.101 367.782C440.745 369.555 441.65 371.861 441.65 374.282C441.642 379.558 437.349 383.852 432.073 383.852Z" fill="black"/>
<path d="M346.733 381.425C346.534 381.425 346.349 381.318 346.256 381.126C345.63 379.858 345.316 378.491 345.316 377.067C345.316 374.312 346.534 371.72 348.67 369.961C348.898 369.776 349.232 369.805 349.425 370.033C349.61 370.26 349.581 370.595 349.353 370.787C347.474 372.339 346.391 374.632 346.391 377.067C346.391 378.327 346.669 379.531 347.225 380.656C347.353 380.919 347.246 381.239 346.982 381.368C346.897 381.403 346.812 381.425 346.733 381.425Z" fill="black"/>
<path d="M304.233 402.99C304.041 402.99 303.856 402.883 303.756 402.705C301.293 397.956 296.437 395.002 291.083 395.002C290.791 395.002 290.549 394.76 290.549 394.468C290.549 394.176 290.791 393.934 291.083 393.934C296.836 393.934 302.048 397.109 304.703 402.214C304.839 402.478 304.739 402.798 304.476 402.933C304.404 402.969 304.319 402.99 304.233 402.99Z" fill="black"/>
<path d="M296.522 423.574C296.309 423.574 296.109 423.446 296.024 423.24C295.917 422.962 296.052 422.656 296.323 422.549C299.527 421.282 302.168 418.897 303.756 415.835C303.891 415.572 304.219 415.472 304.475 415.607C304.739 415.742 304.838 416.063 304.703 416.326C302.994 419.623 300.153 422.179 296.707 423.539C296.65 423.56 296.586 423.574 296.522 423.574Z" fill="black"/>
<path d="M243.251 417.109C242.959 417.109 242.717 416.874 242.717 416.575C242.717 416.283 242.952 416.041 243.251 416.041L276.288 415.955C276.58 415.955 276.822 416.19 276.822 416.489C276.822 416.781 276.587 417.023 276.288 417.023L243.251 417.109Z" fill="#663ABA"/>
<path d="M307.644 416.944C307.352 416.944 307.11 416.709 307.11 416.41C307.11 416.119 307.345 415.876 307.644 415.876L342.76 415.791C343.052 415.791 343.294 416.026 343.294 416.325C343.294 416.617 343.059 416.859 342.76 416.859L307.644 416.944Z" fill="#663ABA"/>
<path d="M278.758 421.488H247.21C246.918 421.488 246.676 421.246 246.676 420.954C246.676 420.662 246.918 420.42 247.21 420.42H278.766C279.058 420.42 279.3 420.662 279.3 420.954C279.3 421.246 279.058 421.488 278.758 421.488Z" fill="#663ABA"/>
<path d="M346.733 421.488H312.486C312.194 421.488 311.952 421.246 311.952 420.954C311.952 420.662 312.194 420.42 312.486 420.42H346.733C347.025 420.42 347.267 420.662 347.267 420.954C347.267 421.246 347.032 421.488 346.733 421.488Z" fill="#663ABA"/>
<path d="M241.371 408.19C241.079 408.19 240.837 407.955 240.837 407.663C240.837 407.371 241.072 407.129 241.364 407.122L274.942 406.865C275.227 406.872 275.476 407.1 275.483 407.392C275.49 407.684 275.248 407.926 274.956 407.933L241.371 408.19C241.371 408.19 241.378 408.19 241.371 408.19Z" fill="#663ABA"/>
<path d="M305.665 407.698C305.373 407.698 305.131 407.463 305.131 407.171C305.131 406.879 305.366 406.637 305.658 406.63L340.973 406.359C340.973 406.359 340.973 406.359 340.98 406.359C341.272 406.359 341.514 406.594 341.514 406.886C341.514 407.178 341.279 407.42 340.987 407.427L305.665 407.698Z" fill="#663ABA"/>
<path d="M247.21 399.247C246.918 399.247 246.683 399.012 246.676 398.72C246.669 398.428 246.911 398.186 247.203 398.179L278.88 397.773H278.887C279.179 397.773 279.421 398.008 279.421 398.3C279.421 398.592 279.186 398.834 278.894 398.841L247.21 399.247Z" fill="#663ABA"/>
<path d="M311.304 398.418C311.012 398.418 310.77 398.183 310.77 397.891C310.77 397.599 311.004 397.357 311.296 397.35L344.305 396.93H344.312C344.604 396.93 344.846 397.165 344.846 397.457C344.846 397.748 344.611 397.991 344.319 397.998L311.304 398.418C311.311 398.418 311.311 398.418 311.304 398.418Z" fill="#663ABA"/>
<path d="M261.158 392.739C260.866 392.739 260.631 392.504 260.624 392.212C260.617 391.92 260.852 391.671 261.151 391.671L292.308 391.158H292.315C292.607 391.158 292.842 391.393 292.849 391.685C292.856 391.977 292.621 392.226 292.322 392.226L261.165 392.739C261.158 392.739 261.158 392.739 261.158 392.739Z" fill="#663ABA"/>
<path d="M326.634 391.664C326.342 391.664 326.107 391.429 326.1 391.137C326.093 390.845 326.328 390.596 326.627 390.596L353.725 390.154H353.732C354.024 390.154 354.259 390.389 354.266 390.681C354.274 390.973 354.039 391.222 353.74 391.222L326.641 391.664C326.641 391.664 326.641 391.664 326.634 391.664Z" fill="#663ABA"/>
<path d="M275.405 386.095C275.113 386.095 274.878 385.86 274.871 385.569C274.864 385.277 275.099 385.027 275.398 385.027L308.428 384.365C308.727 384.365 308.969 384.593 308.969 384.892C308.976 385.184 308.741 385.433 308.442 385.433L275.412 386.095C275.412 386.095 275.405 386.095 275.405 386.095Z" fill="#663ABA"/>
<path d="M343.629 384.729C343.337 384.729 343.102 384.494 343.095 384.202C343.088 383.91 343.323 383.661 343.622 383.661L374.402 383.041C374.686 383.013 374.943 383.269 374.943 383.568C374.95 383.86 374.715 384.109 374.416 384.109L343.636 384.729H343.629Z" fill="#663ABA"/>
<path d="M289.545 379.323C289.253 379.323 289.018 379.096 289.011 378.804C289.004 378.512 289.239 378.263 289.531 378.255L325.337 377.408C325.643 377.437 325.878 377.636 325.885 377.928C325.892 378.22 325.658 378.469 325.366 378.476L289.559 379.323C289.552 379.323 289.545 379.323 289.545 379.323Z" fill="#663ABA"/>
<path d="M361.364 377.623C361.072 377.623 360.837 377.395 360.83 377.103C360.823 376.812 361.058 376.562 361.35 376.555L394.971 375.758C395.277 375.772 395.512 375.986 395.519 376.278C395.526 376.569 395.291 376.819 394.999 376.826L361.378 377.623C361.371 377.623 361.371 377.623 361.364 377.623Z" fill="#663ABA"/>
<path d="M304.975 372.389C304.683 372.389 304.448 372.162 304.441 371.87C304.433 371.578 304.668 371.329 304.96 371.321L342.746 370.289C343.031 370.303 343.287 370.517 343.294 370.809C343.302 371.101 343.067 371.35 342.775 371.357L304.989 372.389C304.982 372.389 304.975 372.389 304.975 372.389Z" fill="#663ABA"/>
<path d="M377.179 370.411C376.887 370.411 376.652 370.183 376.645 369.891C376.638 369.599 376.873 369.35 377.164 369.343L412.772 368.367C413.049 368.374 413.313 368.595 413.32 368.887C413.327 369.179 413.092 369.428 412.8 369.435L377.193 370.411C377.193 370.411 377.186 370.411 377.179 370.411Z" fill="#663ABA"/>
<path d="M386.426 231.318C386.426 231.318 358.679 248.599 334.101 273.768C334.101 273.768 332.421 279.998 330.641 289.795C330.641 289.795 356.408 263.828 383.706 245.238C383.706 245.231 384.717 239.898 386.426 231.318Z" fill="#CE1539"/>
<path d="M365.609 353.071C368.558 353.071 370.949 351.576 370.949 349.732C370.949 347.888 368.558 346.393 365.609 346.393C362.659 346.393 360.269 347.888 360.269 349.732C360.269 351.576 362.659 353.071 365.609 353.071Z" fill="white"/>
<path d="M291.41 353.071C293.624 353.071 295.418 351.831 295.418 350.301C295.418 348.771 293.624 347.531 291.41 347.531C289.196 347.531 287.401 348.771 287.401 350.301C287.401 351.831 289.196 353.071 291.41 353.071Z" fill="white"/>
<path d="M442.909 283.714V239.513C442.909 237 441.137 234.835 438.673 234.344L396.964 225.95C395.027 225.558 393.126 226.79 392.692 228.712C389.865 241.265 380.574 286.42 380.075 339.158C380.054 341.6 381.976 343.622 384.419 343.693L407.58 344.426C410.82 344.526 413.831 342.789 415.362 339.934L440.617 292.813C442.119 290.022 442.909 286.89 442.909 283.714Z" fill="#FF4053"/>
<path d="M375.797 352.196C375.498 352.196 375.263 351.953 375.263 351.662C375.654 283.253 390.307 219.094 390.457 218.461C390.521 218.176 390.813 217.998 391.098 218.062C391.382 218.126 391.567 218.418 391.496 218.703C391.347 219.343 376.722 283.388 376.331 351.669C376.331 351.961 376.089 352.196 375.797 352.196Z" fill="#F59800"/>
<path d="M316.572 352.197C316.572 352.197 316.565 352.197 316.558 352.197C316.266 352.19 316.031 351.947 316.038 351.648C317.142 299.53 334.771 249.911 340.147 235.941C341.393 232.709 344.013 230.252 347.345 229.206L349.773 228.444C350.058 228.351 350.357 228.515 350.442 228.793C350.528 229.078 350.378 229.377 350.093 229.462L347.665 230.224C344.646 231.171 342.275 233.399 341.143 236.326C335.782 250.253 318.21 299.722 317.106 351.67C317.099 351.962 316.857 352.197 316.572 352.197Z" fill="#F59800"/>
<path d="M267.999 133.462L276.287 129.703L318.501 187.66C322.439 193.064 324.56 199.579 324.56 206.264L314.671 207.582C314.671 202.648 313.147 197.827 310.313 193.79L267.999 133.462Z" fill="#F59800"/>
<path d="M276.287 130.229C276.123 130.229 275.96 130.151 275.853 130.009L262.852 112.166C260.31 108.67 259.299 103.508 263.108 100.439C265.984 98.1181 271.146 97.933 275.689 103.017L289.146 118.075C289.345 118.296 289.324 118.631 289.103 118.83C288.882 119.03 288.548 119.008 288.348 118.787L274.892 103.729C270.812 99.1648 266.269 99.2573 263.777 101.272C261.413 103.18 260.481 107.096 263.713 111.546L276.714 129.389C276.885 129.624 276.835 129.959 276.593 130.137C276.508 130.201 276.394 130.229 276.287 130.229Z" fill="#F59800"/>
<path d="M324.561 276.083C324.269 276.083 324.027 275.841 324.027 275.549V206.264C324.027 205.973 324.269 205.73 324.561 205.73C324.853 205.73 325.095 205.973 325.095 206.264V275.549C325.095 275.841 324.853 276.083 324.561 276.083Z" fill="#F59800"/>
<path d="M131.716 198.918L174.287 161.915C175.148 161.167 176.487 161.474 176.943 162.52L203.294 223.275L177.712 233.905C177.712 233.905 150.748 231.741 132.229 217.166C126.376 212.56 126.106 203.802 131.716 198.918Z" fill="black"/>
<path d="M198.095 222.077C198.088 222.077 198.081 222.077 198.074 222.077C197.761 222.062 166.383 220.667 148.554 206.384C142.93 201.884 141.584 193.39 145.664 188.207C145.849 187.972 146.183 187.936 146.411 188.114C146.646 188.299 146.682 188.634 146.504 188.862C142.773 193.597 144.047 201.393 149.224 205.544C166.782 219.606 197.81 220.994 198.124 221.009C198.416 221.023 198.651 221.272 198.636 221.564C198.622 221.849 198.38 222.077 198.095 222.077Z" fill="#663ABA"/>
<path d="M188.07 155.134C187.223 154.963 186.397 154.999 185.635 155.191C184.283 155.54 182.859 155.469 181.627 154.828L165.265 146.362C164.104 145.757 163.207 144.746 162.737 143.521C161.89 141.307 159.633 139.798 157.056 140.104C154.621 140.396 152.648 142.382 152.371 144.817C152.008 148.064 154.535 150.819 157.711 150.819C158.23 150.819 158.729 150.748 159.206 150.606C160.537 150.221 161.954 150.264 163.186 150.898L179.37 159.271C180.587 159.905 181.456 161.008 181.94 162.29C182.709 164.326 184.674 165.771 186.974 165.771C190.292 165.771 192.912 162.767 192.25 159.328C191.844 157.242 190.164 155.554 188.07 155.134Z" fill="#FFBD1F"/>
<path d="M186.967 166.313C184.517 166.313 182.296 164.775 181.434 162.482C180.972 161.25 180.153 160.282 179.12 159.748L178.501 159.428C178.238 159.292 178.138 158.972 178.273 158.709C178.408 158.445 178.729 158.345 178.992 158.481L179.612 158.801C180.879 159.456 181.876 160.631 182.431 162.105C183.136 163.985 184.959 165.245 186.967 165.245C188.419 165.245 189.779 164.604 190.705 163.486C191.63 162.368 192 160.894 191.723 159.435C191.36 157.548 189.85 156.031 187.963 155.654C187.223 155.505 186.482 155.526 185.77 155.704C184.702 155.975 183.627 156.003 182.652 155.768C182.367 155.697 182.189 155.412 182.253 155.127C182.317 154.842 182.609 154.664 182.894 154.729C183.706 154.921 184.603 154.899 185.507 154.672C186.376 154.451 187.273 154.429 188.177 154.607C190.484 155.07 192.335 156.929 192.777 159.235C193.118 161.001 192.663 162.803 191.538 164.17C190.398 165.53 188.74 166.313 186.967 166.313Z" fill="#F59800"/>
<path d="M186.967 163.01C185.529 163.01 184.368 161.842 184.368 160.411C184.368 158.98 185.536 157.812 186.967 157.812C188.398 157.812 189.566 158.98 189.566 160.411C189.566 161.842 188.405 163.01 186.967 163.01ZM186.967 158.873C186.12 158.873 185.436 159.564 185.436 160.404C185.436 161.244 186.127 161.935 186.967 161.935C187.807 161.935 188.498 161.244 188.498 160.404C188.498 159.564 187.814 158.873 186.967 158.873Z" fill="#F59800"/>
<path d="M267.999 109.432C266.134 109.432 264.617 107.915 264.617 106.05C264.617 104.185 266.134 102.668 267.999 102.668C269.865 102.668 271.381 104.185 271.381 106.05C271.381 107.915 269.865 109.432 267.999 109.432ZM267.999 103.736C266.725 103.736 265.685 104.775 265.685 106.05C265.685 107.324 266.725 108.364 267.999 108.364C269.274 108.364 270.313 107.324 270.313 106.05C270.313 104.775 269.274 103.736 267.999 103.736Z" fill="#F59800"/>
<path d="M157.718 148.051C156.28 148.051 155.119 146.883 155.119 145.452C155.119 144.021 156.287 142.854 157.718 142.854C159.149 142.854 160.317 144.021 160.317 145.452C160.317 146.883 159.149 148.051 157.718 148.051ZM157.718 143.914C156.871 143.914 156.187 144.605 156.187 145.445C156.187 146.285 156.878 146.976 157.718 146.976C158.558 146.976 159.249 146.285 159.249 145.445C159.249 144.605 158.558 143.914 157.718 143.914Z" fill="#F59800"/>
<path d="M177.626 233.945C177.626 233.945 181.934 234.315 189.004 234.315C190.214 234.315 190.114 233.802 189.31 233.589L179.755 230.264L177.626 233.945Z" fill="black"/>
<path d="M183.022 231.618C183.022 231.618 187.401 232.002 194.621 232.002C195.853 232.002 195.782 231.468 194.97 231.247L185.379 227.787L183.022 231.618Z" fill="black"/>
<path d="M188.654 229.18C188.654 229.18 193.104 229.579 200.474 229.579C201.734 229.579 201.691 229.024 200.872 228.789L191.253 225.172L188.654 229.18Z" fill="black"/>
<path d="M194.521 226.648C194.521 226.648 199.05 227.06 206.576 227.06C207.864 227.06 207.843 226.477 207.024 226.235L197.384 222.461L194.521 226.648Z" fill="black"/>
<path d="M200.652 224.006C200.652 224.006 205.251 224.44 212.948 224.44C214.265 224.44 214.279 223.835 213.453 223.579L200.353 218.324L200.652 224.006Z" fill="black"/>
<path d="M421.535 322.263L431.659 303.381L389.025 266.008C389.025 266.008 387.366 275.94 385.686 290.308L421.535 322.263Z" fill="#CE1539"/>
<path d="M434.266 298.489C434.138 298.489 434.017 298.446 433.917 298.354L389.538 259.457C389.318 259.265 389.296 258.923 389.489 258.702C389.681 258.482 390.023 258.46 390.243 258.653L434.622 297.556C434.843 297.749 434.864 298.09 434.672 298.311C434.565 298.432 434.416 298.489 434.266 298.489Z" fill="#CE1539"/>
<path d="M315.312 210.758C315.049 210.758 314.821 210.565 314.785 210.295C314.75 210.003 314.949 209.732 315.241 209.697L324.483 208.465C324.768 208.429 325.045 208.629 325.081 208.921C325.116 209.213 324.917 209.483 324.625 209.519L315.383 210.751C315.362 210.758 315.341 210.758 315.312 210.758Z" fill="#F59800"/>
<path d="M315.312 216.113C315.049 216.113 314.821 215.92 314.785 215.65C314.75 215.358 314.949 215.087 315.241 215.052L324.483 213.82C324.768 213.777 325.045 213.984 325.081 214.276C325.116 214.568 324.917 214.838 324.625 214.874L315.383 216.106C315.362 216.113 315.341 216.113 315.312 216.113Z" fill="#F59800"/>
<path d="M274.507 342.363V251.597C274.507 249.425 272.898 247.596 270.74 247.325L228.597 241.971C226.547 241.707 224.453 241.921 222.495 242.597L149.544 267.61C148.846 267.845 148.383 268.5 148.383 269.233C148.383 269.917 148.789 270.536 149.416 270.807L151.794 271.839L131.288 326.706C130.327 329.276 129.836 331.996 129.836 334.737V380.74L127.237 382.263C126.183 382.883 125.535 384.015 125.535 385.239V391.014C125.535 392.915 127.08 394.46 128.981 394.46H224.952C227.237 394.46 229.096 392.609 229.096 390.316V380.882L237.81 356.745C240.509 349.269 247.38 344.107 255.311 343.594L274.507 342.363Z" fill="#00AAFF"/>
<path d="M151.807 271.84L224.524 248.016C226.539 247.354 228.468 249.227 227.87 251.263L214.883 295.322C213.944 298.511 211.331 300.918 208.077 301.594L134.997 316.824L151.807 271.84Z" fill="#0470FF"/>
<path d="M204.675 320.057C204.611 320.057 204.547 320.043 204.483 320.021C204.205 319.914 204.07 319.608 204.169 319.331L210.641 302.264C210.748 301.986 211.054 301.851 211.332 301.951C211.61 302.057 211.745 302.364 211.645 302.641L205.173 319.708C205.088 319.922 204.888 320.057 204.675 320.057Z" fill="#0470FF"/>
<path d="M132.221 332.466C131.965 332.466 131.737 332.281 131.694 332.024C131.645 331.733 131.837 331.455 132.129 331.405L198.003 320.127C198.295 320.077 198.573 320.269 198.622 320.561C198.672 320.853 198.48 321.131 198.188 321.181L132.314 332.459C132.278 332.459 132.25 332.466 132.221 332.466Z" fill="#0470FF"/>
<path d="M203.442 377.871C203.15 377.871 202.908 377.629 202.908 377.337V321.694C202.908 321.402 203.15 321.16 203.442 321.16C203.734 321.16 203.976 321.402 203.976 321.694V377.337C203.976 377.629 203.734 377.871 203.442 377.871Z" fill="#0470FF"/>
<path d="M133.112 382.165C132.827 382.165 132.592 381.937 132.578 381.652C132.564 381.36 132.798 381.111 133.09 381.097L202.083 378.576H227.174C227.466 378.576 227.708 378.818 227.708 379.11C227.708 379.402 227.466 379.644 227.174 379.644H202.097L133.126 382.165C133.126 382.165 133.119 382.165 133.112 382.165Z" fill="#0470FF"/>
<path d="M207.459 338.261L203.443 337.812L193.995 338.809C192.984 338.916 192.215 339.77 192.215 340.789V364.434C192.215 365.531 193.105 366.421 194.201 366.421H207.238C208.335 366.421 209.225 365.531 209.225 364.434V340.233C209.225 339.222 208.463 338.375 207.459 338.261Z" fill="white"/>
<path d="M203.442 365.489C203.15 365.489 202.908 365.247 202.908 364.955V339.288C202.908 338.996 203.15 338.754 203.442 338.754C203.734 338.754 203.976 338.996 203.976 339.288V364.955C203.976 365.247 203.734 365.489 203.442 365.489Z" fill="#E8E8E8"/>
<path d="M133.546 346.279L129.851 346.735V370.95L133.987 370.551C135.02 370.452 135.81 369.583 135.81 368.544V348.28C135.81 347.07 134.749 346.13 133.546 346.279Z" fill="white"/>
<path d="M197.333 350.479C195.169 350.479 193.41 348.35 193.41 345.729C193.41 343.109 195.169 340.98 197.333 340.98C199.498 340.98 201.256 343.109 201.256 345.729C201.256 348.35 199.491 350.479 197.333 350.479ZM197.333 342.041C195.76 342.041 194.478 343.693 194.478 345.722C194.478 347.752 195.76 349.403 197.333 349.403C198.907 349.403 200.188 347.752 200.188 345.722C200.188 343.693 198.907 342.041 197.333 342.041Z" fill="#E8E8E8"/>
<path d="M197.333 357.926C195.938 357.926 194.806 356.573 194.806 354.914C194.806 353.255 195.938 351.902 197.333 351.902C198.729 351.902 199.861 353.255 199.861 354.914C199.861 356.573 198.722 357.926 197.333 357.926ZM197.333 352.963C196.529 352.963 195.874 353.839 195.874 354.907C195.874 355.975 196.529 356.851 197.333 356.851C198.138 356.851 198.793 355.975 198.793 354.907C198.793 353.839 198.138 352.963 197.333 352.963Z" fill="#E8E8E8"/>
<path d="M197.333 365.01C195.938 365.01 194.806 363.657 194.806 361.998C194.806 360.339 195.938 358.986 197.333 358.986C198.729 358.986 199.861 360.339 199.861 361.998C199.861 363.657 198.722 365.01 197.333 365.01ZM197.333 360.054C196.529 360.054 195.874 360.93 195.874 361.998C195.874 363.066 196.529 363.942 197.333 363.942C198.138 363.942 198.793 363.066 198.793 361.998C198.793 360.93 198.138 360.054 197.333 360.054Z" fill="#E8E8E8"/>
<path d="M132.023 356.441C131.424 356.441 130.848 356.234 130.356 355.843C130.129 355.658 130.086 355.323 130.271 355.095C130.456 354.86 130.791 354.824 131.019 355.01C131.325 355.252 131.667 355.373 132.023 355.373C133.105 355.373 133.981 354.219 133.981 352.802C133.981 351.385 133.105 350.232 132.023 350.232C131.652 350.232 131.289 350.374 130.976 350.638C130.748 350.83 130.413 350.802 130.221 350.574C130.029 350.346 130.057 350.011 130.285 349.819C130.798 349.392 131.396 349.164 132.023 349.164C133.689 349.164 135.049 350.795 135.049 352.802C135.049 354.81 133.696 356.441 132.023 356.441Z" fill="#E8E8E8"/>
<path d="M132.421 362.184C131.317 362.184 130.42 361.123 130.42 359.827C130.42 358.524 131.317 357.471 132.421 357.471C133.524 357.471 134.421 358.532 134.421 359.827C134.421 361.123 133.524 362.184 132.421 362.184ZM132.421 358.539C131.915 358.539 131.488 359.13 131.488 359.827C131.488 360.525 131.915 361.116 132.421 361.116C132.926 361.116 133.353 360.525 133.353 359.827C133.353 359.13 132.926 358.539 132.421 358.539Z" fill="#E8E8E8"/>
<path d="M132.421 367.399C131.317 367.399 130.42 366.338 130.42 365.042C130.42 363.739 131.317 362.686 132.421 362.686C133.524 362.686 134.421 363.746 134.421 365.042C134.421 366.345 133.524 367.399 132.421 367.399ZM132.421 363.754C131.915 363.754 131.488 364.345 131.488 365.042C131.488 365.74 131.915 366.331 132.421 366.331C132.926 366.331 133.353 365.74 133.353 365.042C133.353 364.345 132.926 363.754 132.421 363.754Z" fill="#E8E8E8"/>
<path d="M143.513 349.212L181.805 344.983C184.204 344.719 186.162 346.877 185.664 349.241L181.456 369.191C181.128 370.757 179.79 371.904 178.188 372.003L149.33 373.676C147.856 373.762 146.525 372.822 146.112 371.405L140.829 353.249C140.274 351.355 141.562 349.426 143.513 349.212Z" fill="black"/>
<path d="M133.887 391.17C136.101 391.17 137.896 389.93 137.896 388.401C137.896 386.871 136.101 385.631 133.887 385.631C131.674 385.631 129.879 386.871 129.879 388.401C129.879 389.93 131.674 391.17 133.887 391.17Z" fill="white"/>
<path d="M193.944 390.501C196.894 390.501 199.284 389.006 199.284 387.162C199.284 385.317 196.894 383.822 193.944 383.822C190.995 383.822 188.604 385.317 188.604 387.162C188.604 389.006 190.995 390.501 193.944 390.501Z" fill="white"/>
<path d="M148.135 386.578C147.558 386.578 147.081 386.115 147.067 385.531C147.052 384.94 147.522 384.456 148.113 384.442L180.16 383.801C180.737 383.822 181.236 384.256 181.25 384.847C181.264 385.438 180.794 385.923 180.203 385.937L148.156 386.578C148.149 386.578 148.142 386.578 148.135 386.578Z" fill="black"/>
<path d="M152.792 391.036C152.208 391.036 151.731 390.566 151.724 389.982C151.717 389.391 152.187 388.907 152.777 388.9L175.576 388.643C176.16 388.622 176.651 389.106 176.658 389.697C176.665 390.288 176.195 390.772 175.604 390.779L152.806 391.036C152.806 391.036 152.799 391.036 152.792 391.036Z" fill="black"/>
<path d="M367.751 373.982C367.537 373.982 367.338 373.854 367.252 373.647C367.146 373.376 367.274 373.063 367.551 372.956L384.412 366.214C387.751 364.875 391.268 364.113 394.857 363.95L415.725 362.995C416.024 362.974 416.266 363.209 416.281 363.501C416.295 363.793 416.067 364.042 415.775 364.056L394.906 365.01C391.432 365.167 388.036 365.908 384.803 367.196L367.943 373.939C367.886 373.967 367.815 373.982 367.751 373.982Z" fill="#663ABA"/>
<path d="M285.522 374.702C285.302 374.702 285.095 374.566 285.017 374.346L278.175 354.602C278.075 354.324 278.224 354.018 278.502 353.925C278.78 353.826 279.086 353.975 279.178 354.253L286.021 373.997C286.12 374.274 285.971 374.581 285.693 374.673C285.643 374.695 285.586 374.702 285.522 374.702Z" fill="#663ABA"/>
<path d="M185.742 262.641L204.675 256.703L163.215 309.526L144.639 313.585L185.742 262.641Z" fill="#00409E"/>
<path d="M171.481 308.159C171.367 308.159 171.246 308.124 171.153 308.045C170.918 307.86 170.883 307.526 171.061 307.298L212.52 254.474C212.705 254.239 213.04 254.204 213.268 254.382C213.503 254.567 213.538 254.902 213.36 255.129L171.901 307.946C171.801 308.088 171.644 308.159 171.481 308.159Z" fill="#00409E"/>
<path d="M236.529 249.289L263.756 252.55C265.152 252.714 266.199 253.896 266.199 255.306V288.877C266.199 290.187 265.28 291.319 263.998 291.589L227.473 299.3C225.515 299.713 223.778 297.983 224.183 296.018L233.482 251.475C233.781 250.073 235.098 249.118 236.529 249.289Z" fill="#0470FF"/>
<path d="M266.199 322.228C265.907 322.228 265.665 321.986 265.665 321.694V295.792C265.665 295.5 265.907 295.258 266.199 295.258C266.491 295.258 266.733 295.5 266.733 295.792V321.694C266.733 321.986 266.498 322.228 266.199 322.228Z" fill="#0470FF"/>
<path d="M239.535 350.836H220.894C220.602 350.836 220.36 350.594 220.36 350.302V319.907C220.36 319.615 220.602 319.373 220.894 319.373C221.186 319.373 221.428 319.615 221.428 319.907V349.768H239.535C239.826 349.768 240.069 350.01 240.069 350.302C240.069 350.594 239.834 350.836 239.535 350.836Z" fill="#0470FF"/>
<path d="M238.061 303.267H243.45C244.953 303.267 246.17 302.049 246.17 300.547V274.174C246.17 272.544 244.739 271.276 243.116 271.476L237.726 272.138C236.366 272.309 235.341 273.462 235.341 274.836V300.547C235.341 302.049 236.558 303.267 238.061 303.267Z" fill="black"/>
<path d="M220.901 314.117C220.695 314.117 220.495 313.996 220.41 313.79C220.296 313.519 220.424 313.206 220.695 313.092L236.302 306.456C237.291 306.036 237.925 305.068 237.925 304V300.034C237.925 299.742 238.167 299.5 238.459 299.5C238.751 299.5 238.993 299.742 238.993 300.034V304C238.993 305.502 238.103 306.855 236.715 307.439L221.108 314.075C221.036 314.103 220.965 314.117 220.901 314.117Z" fill="black"/>
<path d="M221.094 317.35C222.447 317.35 223.543 315.66 223.543 313.576C223.543 311.492 222.447 309.803 221.094 309.803C219.741 309.803 218.645 311.492 218.645 313.576C218.645 315.66 219.741 317.35 221.094 317.35Z" fill="black"/>
<path d="M238.452 302.84C238.16 302.84 237.918 302.598 237.918 302.306V283.218C237.918 282.926 238.16 282.684 238.452 282.684C238.744 282.684 238.986 282.926 238.986 283.218V302.306C238.986 302.598 238.751 302.84 238.452 302.84Z" fill="#663ABA"/>
<path d="M44.5388 385.211H39.9393C39.6474 385.211 39.4053 384.968 39.4053 384.677C39.4053 384.385 39.6474 384.143 39.9393 384.143H44.5388C44.8307 384.143 45.0728 384.385 45.0728 384.677C45.0728 384.968 44.8307 385.211 44.5388 385.211Z" fill="#E8E8E8"/>
<path d="M43.2781 391.705H38.6785C38.3866 391.705 38.1445 391.463 38.1445 391.171C38.1445 390.879 38.3866 390.637 38.6785 390.637H43.2781C43.57 390.637 43.8121 390.879 43.8121 391.171C43.8121 391.463 43.57 391.705 43.2781 391.705Z" fill="#E8E8E8"/>
<path d="M170.113 262.335C169.373 262.335 168.682 261.872 168.433 261.132C168.113 260.199 168.611 259.188 169.537 258.868L197.518 249.277C198.451 248.956 199.462 249.455 199.782 250.38C200.103 251.313 199.604 252.324 198.679 252.645L170.697 262.235C170.505 262.306 170.306 262.335 170.113 262.335Z" fill="#00AAFF"/>
<path d="M170.114 262.333C170.306 262.333 170.499 262.305 170.691 262.234L198.673 252.643C199.605 252.323 200.097 251.312 199.776 250.379L168.427 261.123C168.69 261.871 169.381 262.333 170.114 262.333Z" fill="#0470FF"/>
<path d="M37.2545 362.427C36.628 362.427 36.0299 362.099 35.7024 361.515C35.2182 360.661 35.5244 359.571 36.3859 359.094C36.5496 359.002 40.4657 356.809 44.3033 355.079C45.2005 354.673 46.2542 355.072 46.66 355.969C47.0659 356.866 46.6672 357.92 45.77 358.325C42.0819 359.992 38.1659 362.185 38.1303 362.206C37.8455 362.355 37.5464 362.427 37.2545 362.427Z" fill="#965EEB"/>
<path d="M38.1229 362.199C38.1585 362.178 42.0745 359.992 45.7627 358.319C46.6598 357.913 47.0585 356.859 46.6527 355.962L46.6456 355.955C43.05 357.593 39.3476 359.444 35.7021 361.516C36.0297 362.1 36.6349 362.427 37.2543 362.427C37.5462 362.427 37.8453 362.356 38.1229 362.199Z" fill="#015359"/>
<path d="M486.377 357.928H458.089C456.907 357.928 455.953 356.974 455.953 355.792C455.953 354.61 456.907 353.656 458.089 353.656H486.377C487.559 353.656 488.513 354.61 488.513 355.792C488.513 356.974 487.559 357.928 486.377 357.928Z" fill="#FF4053"/>
<path d="M486.377 353.656H458.089C456.907 353.656 455.953 354.61 455.953 355.792H488.513C488.513 354.61 487.559 353.656 486.377 353.656Z" fill="#FF2F0B"/>
</g>
<defs>
<clipPath id="clip0_153_3254">
<rect width="536" height="536" fill="white"/>
</clipPath>
</defs>
</svg>
